# xmcd
#
# Track frame offsets:
#	150
#	45208
#	90208
#	135209
#	180181
#	225209
#
# Disc length: 3676 seconds
# Revision: 0
# Processed by: cddbd v1.5.2PL0 Copyright (c) Steve Scherf et al.
# Submitted via: dBpowerAMP V12.0
#
DISCID=270e5a06
DTITLE=Larry Crane - The Goals and Resistance Course Week 3 CD 02
DYEAR=1998
DGENRE=Speech
TTITLE0=The Goals and Resistance Course Week 3 pt 7
TTITLE1=The Goals and Resistance Course Week 3 pt 8
TTITLE2=The Goals and Resistance Course Week 3 pt 9
TTITLE3=The Goals and Resistance Course Week 3 pt 10
TTITLE4=The Goals and Resistance Course Week 3 pt 11
TTITLE5=The Goals and Resistance Course Week 3 pt 12
EXTD=
EXTT0=
EXTT1=
EXTT2=
EXTT3=
EXTT4=
EXTT5=
PLAYORDER=
